<svg width="16" height="16" viewBox="0 0 16 16" fill="none" xmlns="http://www.w3.org/2000/svg">
<g clip-path="url(#clip0_204_663)">
<path d="M3.54687 15.0316H2.60937C2.42289 15.0316 2.24405 14.9575 2.11219 14.8256C1.98033 14.6938 1.90625 14.5149 1.90625 14.3285V10.1097C1.90625 9.92323 1.98033 9.74439 2.11219 9.61253C2.24405 9.48067 2.42289 9.40659 2.60937 9.40659H3.54687C3.73335 9.40659 3.9122 9.48067 4.04406 9.61253C4.17592 9.74439 4.25 9.92323 4.25 10.1097V14.3285C4.25 14.5149 4.17592 14.6938 4.04406 14.8256C3.9122 14.9575 3.73335 15.0316 3.54687 15.0316V15.0316Z" fill="#335E4A"/>
<path d="M10.1094 15.0308H9.17187C8.98539 15.0308 8.80655 14.9567 8.67469 14.8248C8.54283 14.693 8.46875 14.5141 8.46875 14.3276V7.29639C8.46875 7.10991 8.54283 6.93106 8.67469 6.7992C8.80655 6.66734 8.98539 6.59326 9.17187 6.59326H10.1094C10.2959 6.59326 10.4747 6.66734 10.6066 6.7992C10.7384 6.93106 10.8125 7.10991 10.8125 7.29639V14.3276C10.8125 14.5141 10.7384 14.693 10.6066 14.8248C10.4747 14.9567 10.2959 15.0308 10.1094 15.0308V15.0308Z" fill="#335E4A"/>
<path d="M13.3906 15.0311H12.4531C12.2666 15.0311 12.0878 14.957 11.9559 14.8252C11.8241 14.6933 11.75 14.5145 11.75 14.328V4.0155C11.75 3.82902 11.8241 3.65018 11.9559 3.51832C12.0878 3.38646 12.2666 3.31238 12.4531 3.31238H13.3906C13.5771 3.31238 13.7559 3.38646 13.8878 3.51832C14.0197 3.65018 14.0937 3.82902 14.0937 4.0155V14.328C14.0937 14.5145 14.0197 14.6933 13.8878 14.8252C13.7559 14.957 13.5771 15.0311 13.3906 15.0311V15.0311Z" fill="#335E4A"/>
<path d="M6.82812 15.0309H5.89062C5.70414 15.0309 5.5253 14.9569 5.39344 14.825C5.26158 14.6931 5.1875 14.5143 5.1875 14.3278V1.67157C5.1875 1.48509 5.26158 1.30625 5.39344 1.17439C5.5253 1.04252 5.70414 0.968445 5.89062 0.968445H6.82812C7.0146 0.968445 7.19345 1.04252 7.32531 1.17439C7.45717 1.30625 7.53125 1.48509 7.53125 1.67157V14.3278C7.53125 14.5143 7.45717 14.6931 7.32531 14.825C7.19345 14.9569 7.0146 15.0309 6.82812 15.0309V15.0309Z" fill="#335E4A"/>
</g>
<defs>
<clipPath id="clip0_204_663">
<rect width="15" height="15" fill="white" transform="translate(0.5 0.499954)"/>
</clipPath>
</defs>
</svg>
