<svg width="16" height="16" viewBox="0 0 16 16" fill="none" xmlns="http://www.w3.org/2000/svg">
<path d="M13.0391 7.06263H8.9375C8.56454 7.06263 8.20685 6.91447 7.94313 6.65075C7.67941 6.38703 7.53125 6.02934 7.53125 5.65638V1.55482C7.53125 1.52374 7.5189 1.49393 7.49693 1.47196C7.47495 1.44998 7.44514 1.43763 7.41406 1.43763H4.71875C4.22147 1.43763 3.74456 1.63518 3.39292 1.98681C3.04129 2.33844 2.84375 2.81535 2.84375 3.31263V12.6876C2.84375 13.1849 3.04129 13.6618 3.39292 14.0135C3.74456 14.3651 4.22147 14.5626 4.71875 14.5626H11.2812C11.7785 14.5626 12.2554 14.3651 12.6071 14.0135C12.9587 13.6618 13.1562 13.1849 13.1562 12.6876V7.17982C13.1562 7.14874 13.1439 7.11893 13.1219 7.09695C13.0999 7.07498 13.0701 7.06263 13.0391 7.06263Z" fill="#335E4A"/>
<path d="M12.7818 6.02597L8.56865 1.81278C8.56046 1.80464 8.55004 1.7991 8.53871 1.79685C8.52737 1.79461 8.51563 1.79577 8.50495 1.80019C8.49428 1.8046 8.48514 1.81208 8.4787 1.82167C8.47226 1.83126 8.4688 1.84254 8.46875 1.85409V5.65712C8.46875 5.78144 8.51814 5.90067 8.60604 5.98857C8.69395 6.07648 8.81318 6.12587 8.9375 6.12587H12.7405C12.7521 6.12582 12.7634 6.12236 12.773 6.11591C12.7825 6.10947 12.79 6.10034 12.7944 6.08966C12.7988 6.07899 12.8 6.06724 12.7978 6.05591C12.7955 6.04458 12.79 6.03416 12.7818 6.02597Z" fill="#335E4A"/>
</svg>
