<svg width="15" height="15" viewBox="0 0 15 15" fill="none" xmlns="http://www.w3.org/2000/svg">
<path d="M8.7825 1.14561C8.6865 1.06716 8.5759 1.00852 8.45709 0.9731C8.33828 0.937678 8.21362 0.926174 8.09034 0.939252C7.96705 0.95233 7.84758 0.989732 7.73885 1.04929C7.63012 1.10885 7.53427 1.18939 7.45687 1.28624L4.74188 4.68749H5.94187L8.18906 1.87124L8.91094 2.46093L7.10156 4.68749H8.30906L9.6375 3.05249L11.2481 4.3678L10.9688 4.68749H11.25C11.5296 4.68719 11.8076 4.72859 12.075 4.8103C12.1771 4.6187 12.2096 4.3976 12.1669 4.18473C12.1241 3.97186 12.0088 3.78043 11.8406 3.64311L8.7825 1.14561ZM2.8125 5.15624C2.8125 5.03192 2.86189 4.91269 2.94979 4.82478C3.0377 4.73687 3.15693 4.68749 3.28125 4.68749H3.80438L4.54969 3.74999H3.28125C2.90829 3.74999 2.5506 3.89815 2.28688 4.16187C2.02316 4.42559 1.875 4.78328 1.875 5.15624V10.7812C1.875 11.4028 2.12193 11.999 2.56147 12.4385C3.00101 12.8781 3.59715 13.125 4.21875 13.125H11.25C11.7473 13.125 12.2242 12.9274 12.5758 12.5758C12.9275 12.2242 13.125 11.7473 13.125 11.25V7.49999C13.125 7.00271 12.9275 6.52579 12.5758 6.17416C12.2242 5.82253 11.7473 5.62499 11.25 5.62499H3.28125C3.15693 5.62499 3.0377 5.5756 2.94979 5.48769C2.86189 5.39979 2.8125 5.28056 2.8125 5.15624ZM9.84375 9.37499H10.7812C10.9056 9.37499 11.0248 9.42437 11.1127 9.51228C11.2006 9.60019 11.25 9.71942 11.25 9.84374C11.25 9.96806 11.2006 10.0873 11.1127 10.1752C11.0248 10.2631 10.9056 10.3125 10.7812 10.3125H9.84375C9.71943 10.3125 9.6002 10.2631 9.51229 10.1752C9.42439 10.0873 9.375 9.96806 9.375 9.84374C9.375 9.71942 9.42439 9.60019 9.51229 9.51228C9.6002 9.42437 9.71943 9.37499 9.84375 9.37499Z" fill="#2D2D2D"/>
</svg>
