<svg width="16" height="16" viewBox="0 0 16 16" fill="none" xmlns="http://www.w3.org/2000/svg">
<g clip-path="url(#clip0_204_1109)">
<path d="M8.16191 3.46754C8.11829 3.42581 8.06026 3.40253 7.9999 3.40253C7.93954 3.40253 7.88151 3.42581 7.83789 3.46754L2.44434 8.61998C2.42143 8.64189 2.40321 8.66822 2.39077 8.69738C2.37833 8.72653 2.37194 8.75791 2.37197 8.78961L2.37109 13.6253C2.37109 13.874 2.46987 14.1124 2.64568 14.2883C2.8215 14.4641 3.05995 14.5628 3.30859 14.5628H6.12402C6.24834 14.5628 6.36757 14.5135 6.45548 14.4256C6.54339 14.3376 6.59277 14.2184 6.59277 14.0941V10.1097C6.59277 10.0476 6.61746 9.98795 6.66142 9.944C6.70537 9.90004 6.76499 9.87535 6.82715 9.87535H9.1709C9.23306 9.87535 9.29267 9.90004 9.33662 9.944C9.38058 9.98795 9.40527 10.0476 9.40527 10.1097V14.0941C9.40527 14.2184 9.45466 14.3376 9.54256 14.4256C9.63047 14.5135 9.7497 14.5628 9.87402 14.5628H12.6883C12.9369 14.5628 13.1754 14.4641 13.3512 14.2883C13.527 14.1124 13.6258 13.874 13.6258 13.6253V8.78961C13.6258 8.75791 13.6194 8.72653 13.607 8.69738C13.5945 8.66822 13.5763 8.64189 13.5534 8.61998L8.16191 3.46754Z" fill="white"/>
<path d="M14.8821 7.65375L12.6907 5.55726V2.37592C12.6907 2.2516 12.6413 2.13237 12.5534 2.04446C12.4655 1.95655 12.3463 1.90717 12.222 1.90717H10.8157C10.6914 1.90717 10.5722 1.95655 10.4843 2.04446C10.3964 2.13237 10.347 2.2516 10.347 2.37592V3.31342L8.65011 1.69095C8.49132 1.53041 8.25518 1.43842 8.00001 1.43842C7.74571 1.43842 7.51016 1.53041 7.35138 1.69125L1.11993 7.65316C0.937706 7.82894 0.914855 8.1181 1.08068 8.30853C1.12232 8.3566 1.1733 8.39569 1.23053 8.42343C1.28776 8.45116 1.35003 8.46697 1.41356 8.46987C1.47709 8.47278 1.54054 8.46272 1.60006 8.44033C1.65958 8.41793 1.71392 8.38365 1.75978 8.33959L7.83888 2.5306C7.88249 2.48888 7.94053 2.46559 8.00089 2.46559C8.06125 2.46559 8.11928 2.48888 8.1629 2.5306L14.2426 8.33959C14.3321 8.42547 14.4521 8.47234 14.5762 8.46992C14.7002 8.46751 14.8183 8.416 14.9044 8.3267C15.0843 8.14037 15.0693 7.83275 14.8821 7.65375Z" fill="white"/>
</g>
<defs>
<clipPath id="clip0_204_1109">
<rect width="15" height="15" fill="white" transform="translate(0.5 0.500031)"/>
</clipPath>
</defs>
</svg>
