<svg width="15" height="15" viewBox="0 0 15 15" fill="none" xmlns="http://www.w3.org/2000/svg">
<g clip-path="url(#clip0_204_1100)">
<path d="M13.7563 3.53139C13.7226 3.46574 13.6738 3.40899 13.6139 3.36577C13.5541 3.32254 13.4849 3.29406 13.412 3.28264C13.3391 3.27121 13.2645 3.27718 13.1943 3.30004C13.1241 3.3229 13.0603 3.36202 13.0081 3.4142L11.2081 5.21537C11.1197 5.30245 11.0006 5.35126 10.8766 5.35126C10.7525 5.35126 10.6334 5.30245 10.5451 5.21537L9.76696 4.43607C9.72342 4.39255 9.68889 4.34087 9.66532 4.28399C9.64176 4.22711 9.62963 4.16615 9.62963 4.10458C9.62963 4.04302 9.64176 3.98205 9.66532 3.92517C9.68889 3.8683 9.72342 3.81662 9.76696 3.77309L11.5593 1.98041C11.6131 1.92669 11.6529 1.86071 11.6755 1.78815C11.6981 1.7156 11.7027 1.63865 11.6889 1.56392C11.6751 1.4892 11.6434 1.41895 11.5964 1.35921C11.5494 1.29948 11.4887 1.25206 11.4193 1.22104C10.0655 0.615764 8.37566 0.931584 7.31013 1.9892C6.40486 2.88803 6.13503 4.29252 6.57038 5.84262C6.59386 5.92528 6.59399 6.01283 6.57077 6.09556C6.54756 6.17829 6.50189 6.25299 6.43884 6.31137L1.5615 10.766C1.37149 10.9366 1.21823 11.1441 1.11107 11.3759C1.0039 11.6076 0.945078 11.8588 0.938185 12.1141C0.931292 12.3693 0.976475 12.6233 1.07098 12.8606C1.16548 13.0978 1.30732 13.3133 1.48784 13.4939C1.66836 13.6745 1.88379 13.8164 2.12097 13.911C2.35816 14.0056 2.61213 14.0509 2.86739 14.0441C3.12266 14.0374 3.37387 13.9787 3.6057 13.8716C3.83753 13.7645 4.04511 13.6114 4.21579 13.4214L8.71814 8.53324C8.77568 8.471 8.84911 8.42564 8.93052 8.40205C9.01194 8.37846 9.09824 8.37752 9.18015 8.39935C9.62146 8.52027 10.0767 8.58301 10.5342 8.58598C11.5128 8.58598 12.3715 8.26928 12.9908 7.65902C14.1378 6.52904 14.3127 4.61244 13.7563 3.53139ZM2.91472 13.1006C2.72177 13.1217 2.52704 13.0823 2.35741 12.988C2.18777 12.8937 2.05159 12.749 1.96767 12.574C1.88374 12.399 1.8562 12.2023 1.88886 12.0109C1.92151 11.8196 2.01274 11.6431 2.14996 11.5059C2.28719 11.3686 2.46363 11.2773 2.65495 11.2446C2.84627 11.2119 3.04302 11.2393 3.21807 11.3232C3.39311 11.4071 3.53781 11.5432 3.63219 11.7128C3.72657 11.8824 3.76599 12.0771 3.74499 12.2701C3.7219 12.4824 3.62701 12.6804 3.47602 12.8315C3.32504 12.9825 3.12702 13.0775 2.91472 13.1006Z" fill="#335E4A"/>
</g>
<defs>
<clipPath id="clip0_204_1100">
<rect width="15" height="15" fill="white"/>
</clipPath>
</defs>
</svg>
