<svg width="14" height="14" viewBox="0 0 14 14" fill="none" xmlns="http://www.w3.org/2000/svg">
<path d="M9.81792 10.325C9.67188 10.1565 9.59886 9.96515 9.59886 9.751C9.59886 9.53737 9.67188 9.35926 9.81792 9.21667L11.2916 7.77778H5.5761C5.3504 7.77778 5.16135 7.70311 5.00893 7.55378C4.85599 7.40496 4.77952 7.22037 4.77952 7C4.77952 6.77963 4.85599 6.59478 5.00893 6.44544C5.16135 6.29663 5.3504 6.22222 5.5761 6.22222H11.2916L9.81792 4.78333C9.65861 4.62778 9.57895 4.44319 9.57895 4.22956C9.57895 4.01541 9.65861 3.83056 9.81792 3.675C9.96396 3.51944 10.1466 3.44167 10.366 3.44167C10.5848 3.44167 10.7672 3.51296 10.9132 3.65556L13.7809 6.45556C13.8606 6.53333 13.9172 6.61759 13.9506 6.70833C13.9835 6.79907 14 6.8963 14 7C14 7.1037 13.9835 7.20093 13.9506 7.29167C13.9172 7.38241 13.8606 7.46667 13.7809 7.54444L10.9132 10.3444C10.7406 10.513 10.5516 10.5874 10.3461 10.5677C10.14 10.5485 9.96396 10.4676 9.81792 10.325ZM1.59317 14C1.15505 14 0.779858 13.8478 0.467596 13.5434C0.155865 13.2386 0 12.8722 0 12.4444V1.55556C0 1.12778 0.155865 0.761444 0.467596 0.456555C0.779858 0.152185 1.15505 0 1.59317 0H6.37269C6.59839 0 6.78771 0.0744074 6.94065 0.223222C7.09307 0.372556 7.16927 0.557407 7.16927 0.777778C7.16927 0.998148 7.09307 1.18274 6.94065 1.33156C6.78771 1.48089 6.59839 1.55556 6.37269 1.55556H1.59317V7V12.4444H6.37269C6.59839 12.4444 6.78771 12.5191 6.94065 12.6684C7.09307 12.8173 7.16927 13.0019 7.16927 13.2222C7.16927 13.4426 7.09307 13.6272 6.94065 13.776C6.78771 13.9253 6.59839 14 6.37269 14H1.59317Z" fill="#335E4A"/>
</svg>
