<svg width="12" height="14" viewBox="0 0 12 14" fill="none" xmlns="http://www.w3.org/2000/svg">
<path d="M11.0391 6.125H6.9375C6.56454 6.125 6.20685 5.97684 5.94313 5.71312C5.67941 5.44939 5.53125 5.09171 5.53125 4.71875V0.617187C5.53125 0.586107 5.5189 0.5563 5.49693 0.534323C5.47495 0.512347 5.44514 0.5 5.41406 0.5H2.71875C2.22147 0.5 1.74456 0.697544 1.39292 1.04917C1.04129 1.40081 0.84375 1.87772 0.84375 2.375V11.75C0.84375 12.2473 1.04129 12.7242 1.39292 13.0758C1.74456 13.4275 2.22147 13.625 2.71875 13.625H9.28125C9.77853 13.625 10.2554 13.4275 10.6071 13.0758C10.9587 12.7242 11.1562 12.2473 11.1562 11.75V6.24219C11.1562 6.21111 11.1439 6.1813 11.1219 6.15932C11.0999 6.13734 11.0701 6.125 11.0391 6.125Z" fill="#335E4A"/>
</svg>
