<svg width="20" height="20" viewBox="0 0 20 20" fill="none" xmlns="http://www.w3.org/2000/svg">
<path d="M15.216 13.1711C15.8482 13.7722 16.7965 14.674 18.0609 15.8763C18.3543 16.1709 18.5016 16.5447 18.4827 16.9632C18.5016 17.337 18.3488 17.722 18.0419 18.0255C17.7518 18.3145 17.3914 18.4662 16.9707 18.4852C16.5199 18.4662 16.1695 18.3145 15.885 18.0299C14.635 16.8222 13.6975 15.9164 13.0725 15.3125M9 16.5C13.1421 16.5 16.5 13.1421 16.5 9C16.5 4.85786 13.1421 1.5 9 1.5C4.85786 1.5 1.5 4.85786 1.5 9C1.5 13.1421 4.85786 16.5 9 16.5Z" stroke="#42535D" stroke-width="1.2" stroke-linecap="round" stroke-linejoin="round"/>
</svg>
