<svg width="429" height="513" viewBox="0 0 429 513" fill="none" xmlns="http://www.w3.org/2000/svg">
<path d="M214.89 110.573C142.283 110.573 82.9625 169.893 82.9625 242.501C82.9625 280.465 99.5721 317.007 127.571 341.684C148.452 362.564 146.554 407.173 146.079 407.648C146.079 410.02 146.554 411.919 148.452 413.817C149.876 415.241 152.248 416.19 154.147 416.19H275.16C277.532 416.19 279.431 415.241 280.854 413.817C282.278 412.393 283.227 410.02 283.227 407.648C283.227 407.173 280.854 362.564 301.735 341.684L303.159 340.26C330.683 315.108 346.818 279.516 346.818 242.501C346.818 169.893 287.498 110.573 214.89 110.573ZM290.82 329.345C290.345 329.82 289.396 330.769 289.396 331.243C270.888 351.175 267.567 383.92 267.092 399.58H162.214C161.74 383.92 158.418 349.751 138.486 329.345C113.334 307.515 98.623 275.72 98.623 242.026C98.623 177.96 150.35 126.233 214.416 126.233C278.481 126.233 330.209 177.96 330.209 242.026C330.209 275.72 315.972 307.515 290.82 329.345Z" fill="#F1CA38"/>
<path d="M214.416 144.266C210.145 144.266 206.348 148.063 206.348 152.334C206.348 156.605 210.145 160.401 214.416 160.401C262.346 160.401 300.786 199.315 300.786 246.772C300.786 251.043 304.582 254.839 308.853 254.839C313.124 254.839 316.921 251.043 316.921 246.772C317.395 190.299 271.363 144.266 214.416 144.266ZM267.092 425.206H161.74C150.825 425.206 141.808 434.223 141.808 445.138C141.808 456.053 150.825 465.069 161.74 465.069H266.617C278.007 464.595 287.024 456.053 287.024 445.138C287.024 434.223 278.007 425.206 267.092 425.206ZM267.092 448.46H161.74C159.841 448.46 157.943 447.036 157.943 444.663C157.943 442.29 159.367 440.867 161.74 440.867H266.617C268.516 440.867 270.414 442.29 270.414 444.663C270.414 447.036 268.99 448.46 267.092 448.46ZM251.431 473.137H177.4C166.485 473.137 157.468 482.154 157.468 493.068C157.468 503.983 166.485 513 177.4 513H251.431C262.346 513 271.363 503.983 271.363 493.068C271.363 481.679 262.346 473.137 251.431 473.137ZM251.431 496.39H177.4C175.502 496.39 173.604 494.967 173.604 492.594C173.604 490.221 175.027 488.797 177.4 488.797H251.431C253.33 488.797 255.228 490.221 255.228 492.594C255.228 494.967 253.33 496.39 251.431 496.39ZM214.416 71.1841C219.161 71.1841 222.483 67.3876 222.483 63.1166V8.06753C222.483 3.79649 218.687 0 214.416 0C210.145 0 206.348 3.79649 206.348 8.06753V63.1166C206.348 67.3876 210.145 71.1841 214.416 71.1841ZM348.716 40.8122C344.92 37.9648 340.174 39.3885 337.801 42.7105L307.43 88.2683C304.582 92.0648 305.531 97.2849 309.328 99.6577C310.752 100.607 312.175 101.081 313.599 101.081C316.446 101.081 318.819 99.6577 320.243 97.2849L350.615 51.7271C353.462 48.4052 352.513 43.185 348.716 40.8122ZM118.08 99.1832C119.504 99.1832 120.927 98.7086 122.351 97.7595C126.148 95.3867 127.097 90.1665 124.724 86.37L95.3011 40.3377C92.9282 36.5412 87.7081 35.592 83.9116 37.9648C80.1151 40.3377 79.166 45.5578 81.5388 49.3543L110.962 95.3867C112.86 98.234 115.233 99.1832 118.08 99.1832ZM60.6581 149.487L12.7275 123.386C8.93102 121.488 3.71086 122.911 1.81262 126.708C-0.560188 130.504 0.863493 135.724 5.13454 137.623L53.0652 163.723C54.4888 164.198 55.438 164.673 56.8616 164.673C59.709 164.673 62.5564 163.249 63.9801 160.401C65.8783 156.605 64.4546 151.385 60.6581 149.487ZM427.493 126.708C425.595 122.911 420.375 121.488 416.579 123.386L368.173 149.487C364.377 151.385 362.953 156.605 364.851 160.401C366.275 163.249 369.122 164.673 371.97 164.673C373.394 164.673 374.817 164.198 375.766 163.723L424.172 137.623C427.968 135.724 429.392 130.504 427.493 126.708Z" fill="#F1CA38"/>
</svg>
