<svg width="512" height="434" viewBox="0 0 512 434" fill="none" xmlns="http://www.w3.org/2000/svg">
<path d="M511.941 393.012V84.0378C512.019 83.2927 512.019 82.5412 511.941 81.796C511.989 81.199 511.989 80.5989 511.941 80.0019L510.82 78.2078L509.474 76.4137H507.905L505.887 75.0683C493.525 70.7066 480.953 66.9649 468.218 63.857V11.3896C468.218 5.19794 463.199 0.178223 457.007 0.178223C377.592 0.987516 303.214 39.2156 256.331 103.319C209.897 39.1609 135.746 0.878209 56.5506 0.178223C50.359 0.178223 45.3393 5.19794 45.3393 11.3896V62.2878C32.5169 65.4337 19.8686 69.2507 7.4465 73.723L5.20465 75.0683H3.63442L2.2891 76.8624L1.16765 78.6566C1.12035 79.2537 1.12035 79.8536 1.16765 80.4507C0.693587 81.2236 0.316913 82.0521 0.0461977 82.9174V393.236C-0.0168641 393.908 -0.0168641 394.583 0.0461977 395.254C0.228026 395.794 0.452947 396.32 0.718857 396.823C1.07411 397.622 1.52605 398.376 2.06418 399.065V400.411L3.85828 401.756L5.65239 402.877H13.7243C52.7835 389.743 94.3054 385.604 135.189 390.767C176.072 395.931 215.261 410.265 249.828 432.698L251.846 433.82H260.59C295.175 411.806 334.236 397.786 374.926 392.782C415.616 387.779 456.909 391.917 495.797 404.895H503.869L505.887 403.55L507.456 402.429V400.859C509.299 399.959 510.852 398.561 511.941 396.823C511.993 396.226 511.993 395.626 511.941 395.029C512.004 394.359 512.004 393.684 511.941 393.012ZM22.245 377.99V92.3336C29.2701 89.9415 36.745 87.6996 44.6666 85.607V312.517C44.6551 318.709 49.6653 323.737 55.857 323.748C56.0882 323.748 56.3194 323.742 56.5496 323.728L56.7735 323.952C114.77 323.934 170.407 346.914 211.485 387.855C151.11 364.287 84.743 360.827 22.245 377.99ZM245.119 390.322C223.42 363.915 196.469 342.306 165.976 326.867C135.483 311.428 102.114 302.494 67.9859 300.634V22.8258C103.407 25.2231 137.802 35.7307 168.516 53.5369C199.229 71.343 225.439 95.9712 245.119 125.519V390.322ZM267.766 391.218V125.518C287.641 96.1053 313.927 71.5829 344.647 53.7955C375.367 36.0082 409.721 25.419 445.124 22.8248H445.348V301.53C411.163 303.424 377.739 312.369 347.178 327.804C316.617 343.239 289.58 364.83 267.766 391.218ZM490.192 377.99C427.753 360.973 361.503 364.431 301.175 387.856C342.424 346.869 398.185 323.823 456.335 323.73C462.527 323.73 467.547 318.71 467.547 312.518V85.607C475.169 87.5943 482.722 89.8378 490.193 92.3336V377.99H490.192Z" fill="#F1CA38"/>
</svg>
