<svg width="13" height="13" viewBox="0 0 13 13" fill="none" xmlns="http://www.w3.org/2000/svg">
<g clip-path="url(#clip0_204_1179)">
<path d="M11.7812 3.25001H1.93375C1.81613 3.27278 1.69494 3.26925 1.57885 3.23968C1.46275 3.21011 1.35464 3.15524 1.26224 3.07899C1.16984 3.00274 1.09544 2.907 1.04438 2.79863C0.993315 2.69026 0.966849 2.57194 0.966875 2.45214V2.4367L11.375 2.03126V1.06439C11.392 0.920129 11.3759 0.773901 11.3281 0.636745C11.2803 0.49959 11.2019 0.375094 11.0989 0.272658C10.996 0.170223 10.871 0.092526 10.7336 0.0454352C10.5962 -0.0016557 10.4499 -0.0169094 10.3057 0.000825946L1.06437 1.50314C0.752482 1.61827 0.483308 1.82613 0.293032 2.09876C0.102756 2.37139 0.000496958 2.69574 0 3.0282L0 11.7805C0 12.1037 0.128404 12.4137 0.356964 12.6422C0.585524 12.8708 0.895517 12.9992 1.21875 12.9992H11.7812C12.1045 12.9992 12.4145 12.8708 12.643 12.6422C12.8716 12.4137 13 12.1037 13 11.7805V4.45983L13.0008 4.42651C13.0008 4.11406 12.8767 3.81439 12.6557 3.59345C12.4348 3.37251 12.1351 3.24839 11.8227 3.24839L11.7796 3.2492L11.7812 3.25001ZM10.5625 8.93751C10.2392 8.93741 9.9291 8.80886 9.70055 8.58014C9.47199 8.35143 9.34364 8.04129 9.34375 7.71795C9.34386 7.39461 9.47241 7.08456 9.70112 6.856C9.92983 6.62744 10.24 6.49909 10.5633 6.4992C10.7234 6.49925 10.8819 6.53084 11.0298 6.59216C11.1777 6.65348 11.3121 6.74332 11.4253 6.85657C11.5384 6.96982 11.6282 7.10425 11.6894 7.25218C11.7506 7.40012 11.7821 7.55866 11.7821 7.71876C11.782 7.87887 11.7504 8.03739 11.6891 8.18528C11.6278 8.33318 11.5379 8.46755 11.4247 8.58072C11.3114 8.69389 11.177 8.78365 11.0291 8.84487C10.8811 8.90609 10.7226 8.93757 10.5625 8.93751Z" fill="#335E4A"/>
</g>
<defs>
<clipPath id="clip0_204_1179">
<rect width="13" height="13" fill="white"/>
</clipPath>
</defs>
</svg>
