<svg width="13" height="14" viewBox="0 0 13 14" fill="none" xmlns="http://www.w3.org/2000/svg">
<path d="M7.7825 1.14561C7.6865 1.06716 7.5759 1.00852 7.45709 0.9731C7.33828 0.937678 7.21362 0.926174 7.09034 0.939252C6.96705 0.95233 6.84758 0.989732 6.73885 1.04929C6.63012 1.10885 6.53427 1.18939 6.45687 1.28624L3.74188 4.68749H4.94187L7.18906 1.87124L7.91094 2.46093L6.10156 4.68749H7.30906L8.6375 3.05249L10.2481 4.3678L9.96875 4.68749H10.25C10.5296 4.68719 10.8076 4.72859 11.075 4.8103C11.1771 4.6187 11.2096 4.3976 11.1669 4.18473C11.1241 3.97186 11.0088 3.78043 10.8406 3.64311L7.7825 1.14561ZM1.8125 5.15624C1.8125 5.03192 1.86189 4.91269 1.94979 4.82478C2.0377 4.73687 2.15693 4.68749 2.28125 4.68749H2.80438L3.54969 3.74999H2.28125C1.90829 3.74999 1.5506 3.89815 1.28688 4.16187C1.02316 4.42559 0.875 4.78328 0.875 5.15624V10.7812C0.875 11.4028 1.12193 11.999 1.56147 12.4385C2.00101 12.8781 2.59715 13.125 3.21875 13.125H10.25C10.7473 13.125 11.2242 12.9274 11.5758 12.5758C11.9275 12.2242 12.125 11.7473 12.125 11.25V7.49999C12.125 7.00271 11.9275 6.52579 11.5758 6.17416C11.2242 5.82253 10.7473 5.62499 10.25 5.62499H2.28125C2.15693 5.62499 2.0377 5.5756 1.94979 5.48769C1.86189 5.39979 1.8125 5.28056 1.8125 5.15624ZM8.84375 9.37499H9.78125C9.90557 9.37499 10.0248 9.42437 10.1127 9.51228C10.2006 9.60019 10.25 9.71942 10.25 9.84374C10.25 9.96806 10.2006 10.0873 10.1127 10.1752C10.0248 10.2631 9.90557 10.3125 9.78125 10.3125H8.84375C8.71943 10.3125 8.6002 10.2631 8.51229 10.1752C8.42439 10.0873 8.375 9.96806 8.375 9.84374C8.375 9.71942 8.42439 9.60019 8.51229 9.51228C8.6002 9.42437 8.71943 9.37499 8.84375 9.37499Z" fill="#2D2D2D"/>
</svg>
